<svg width="76" height="77" viewBox="0 0 76 77" fill="none" xmlns="http://www.w3.org/2000/svg">
<g filter="url(#filter0_d)">
<path d="M38 68.9062C56.7305 68.9062 71.9062 53.7305 71.9062 35C71.9062 16.2695 56.7305 1.09375 38 1.09375C19.2695 1.09375 4.09375 16.2695 4.09375 35C4.09375 53.7305 19.2695 68.9062 38 68.9062ZM22.1406 28.9844H38V19.291C38 17.8281 39.7773 17.0898 40.8027 18.1289L56.4297 33.8379C57.0723 34.4805 57.0723 35.5059 56.4297 36.1484L40.8027 51.8711C39.7637 52.9102 38 52.1719 38 50.709V41.0156H22.1406C21.2383 41.0156 20.5 40.2773 20.5 39.375V30.625C20.5 29.7227 21.2383 28.9844 22.1406 28.9844Z" fill="black"/>
</g>
<defs>
<filter id="filter0_d" x="-1" y="0" width="78" height="78" filterUnits="userSpaceOnUse" color-interpolation-filters="sRGB">
<feFlood flood-opacity="0" result="BackgroundImageFix"/>
<feColorMatrix in="SourceAlpha" type="matrix" values="0 0 0 0 0 0 0 0 0 0 0 0 0 0 0 0 0 0 127 0"/>
<feOffset dy="4"/>
<feGaussianBlur stdDeviation="2"/>
<feColorMatrix type="matrix" values="0 0 0 0 0 0 0 0 0 0 0 0 0 0 0 0 0 0 0.25 0"/>
<feBlend mode="normal" in2="BackgroundImageFix" result="effect1_dropShadow"/>
<feBlend mode="normal" in="SourceGraphic" in2="effect1_dropShadow" result="shape"/>
</filter>
</defs>
</svg>
